<mxfile host="65bd71144e">
    <diagram id="C5RBs43oDa-KdzZeNtuy" name="Page-1">
        <mxGraphModel dx="974" dy="313" grid="1" gridSize="10" guides="1" tooltips="1" connect="1" arrows="1" fold="1" page="1" pageScale="1" pageWidth="827" pageHeight="1169" math="0" shadow="0">
            <root>
                <mxCell id="WIyWlLk6GJQsqaUBKTNV-0"/>
                <mxCell id="WIyWlLk6GJQsqaUBKTNV-1" parent="WIyWlLk6GJQsqaUBKTNV-0"/>
                <mxCell id="5dTWsFyq5Sc_2p3kr0p3-52" value="" style="edgeStyle=orthogonalEdgeStyle;rounded=0;orthogonalLoop=1;jettySize=auto;html=1;labelBackgroundColor=none;endArrow=block;endFill=0;endSize=8;strokeWidth=1;shadow=0;dashed=1;" parent="WIyWlLk6GJQsqaUBKTNV-1" source="WIyWlLk6GJQsqaUBKTNV-3" target="5dTWsFyq5Sc_2p3kr0p3-51" edge="1">
                    <mxGeometry relative="1" as="geometry"/>
                </mxCell>
                <mxCell id="WIyWlLk6GJQsqaUBKTNV-3" value="Sheet.SetCell(&lt;b&gt;&lt;i&gt;pos&lt;/i&gt;&lt;/b&gt;,&amp;nbsp;&lt;b&gt;&lt;i&gt;value&lt;/i&gt;&lt;/b&gt;)" style="rounded=1;whiteSpace=wrap;html=1;fontSize=12;glass=0;strokeWidth=1;shadow=0;" parent="WIyWlLk6GJQsqaUBKTNV-1" vertex="1">
                    <mxGeometry x="265" y="230" width="150" height="40" as="geometry"/>
                </mxCell>
                <mxCell id="5dTWsFyq5Sc_2p3kr0p3-17" value="Yes" style="edgeStyle=orthogonalEdgeStyle;rounded=0;html=1;jettySize=auto;orthogonalLoop=1;fontSize=11;endArrow=block;endFill=0;endSize=8;strokeWidth=1;shadow=0;labelBackgroundColor=none;" parent="WIyWlLk6GJQsqaUBKTNV-1" source="5dTWsFyq5Sc_2p3kr0p3-18" target="5dTWsFyq5Sc_2p3kr0p3-22" edge="1">
                    <mxGeometry x="-0.7058" y="14" relative="1" as="geometry">
                        <mxPoint as="offset"/>
                        <mxPoint x="650" y="507.5" as="targetPoint"/>
                    </mxGeometry>
                </mxCell>
                <mxCell id="5dTWsFyq5Sc_2p3kr0p3-18" value="Значение &lt;br&gt;ячейки является объектом типа формула" style="rhombus;whiteSpace=wrap;html=1;shadow=0;fontFamily=Helvetica;fontSize=12;align=center;strokeWidth=1;spacing=6;spacingTop=-4;" parent="WIyWlLk6GJQsqaUBKTNV-1" vertex="1">
                    <mxGeometry x="268.33" y="570" width="143.33" height="107.5" as="geometry"/>
                </mxCell>
                <mxCell id="5dTWsFyq5Sc_2p3kr0p3-22" value="Наличие циклических ссылок" style="rhombus;whiteSpace=wrap;html=1;shadow=0;fontFamily=Helvetica;fontSize=12;align=center;strokeWidth=1;spacing=6;spacingTop=-4;" parent="WIyWlLk6GJQsqaUBKTNV-1" vertex="1">
                    <mxGeometry x="468.34000000000003" y="583.75" width="100" height="80" as="geometry"/>
                </mxCell>
                <mxCell id="5dTWsFyq5Sc_2p3kr0p3-57" value="" style="edgeStyle=orthogonalEdgeStyle;rounded=0;orthogonalLoop=1;jettySize=auto;html=1;labelBackgroundColor=none;endArrow=block;endFill=0;endSize=8;strokeWidth=1;shadow=0;" parent="WIyWlLk6GJQsqaUBKTNV-1" source="5dTWsFyq5Sc_2p3kr0p3-35" target="5dTWsFyq5Sc_2p3kr0p3-18" edge="1">
                    <mxGeometry relative="1" as="geometry"/>
                </mxCell>
                <mxCell id="5dTWsFyq5Sc_2p3kr0p3-35" value="Инициализация значения ячейки соответствующим&amp;nbsp; значением производного от &lt;b&gt;&lt;i&gt;Impl&lt;/i&gt;&lt;/b&gt; типа" style="rounded=1;whiteSpace=wrap;html=1;fontSize=12;glass=0;strokeWidth=1;shadow=0;" parent="WIyWlLk6GJQsqaUBKTNV-1" vertex="1">
                    <mxGeometry x="265" y="450" width="150" height="80" as="geometry"/>
                </mxCell>
                <mxCell id="5dTWsFyq5Sc_2p3kr0p3-40" value="Добавление ячейки в контейнер &lt;i&gt;sheet&lt;/i&gt;" style="rounded=1;whiteSpace=wrap;html=1;fontSize=12;glass=0;strokeWidth=1;shadow=0;" parent="WIyWlLk6GJQsqaUBKTNV-1" vertex="1">
                    <mxGeometry x="280" y="910" width="120" height="40" as="geometry"/>
                </mxCell>
                <mxCell id="5dTWsFyq5Sc_2p3kr0p3-46" value="&lt;font style=&quot;font-size: 14px;&quot;&gt;&lt;b&gt;Создание новой ячейки&lt;/b&gt;&lt;/font&gt;" style="text;html=1;strokeColor=none;fillColor=none;align=center;verticalAlign=middle;whiteSpace=wrap;rounded=0;" parent="WIyWlLk6GJQsqaUBKTNV-1" vertex="1">
                    <mxGeometry x="220" y="180" width="380" height="30" as="geometry"/>
                </mxCell>
                <mxCell id="5dTWsFyq5Sc_2p3kr0p3-51" value="Валидация значения&lt;i&gt; &lt;br&gt;value&amp;nbsp;&lt;/i&gt;" style="rhombus;whiteSpace=wrap;html=1;shadow=0;fontFamily=Helvetica;fontSize=12;align=center;strokeWidth=1;spacing=6;spacingTop=-4;" parent="WIyWlLk6GJQsqaUBKTNV-1" vertex="1">
                    <mxGeometry x="280" y="320" width="120" height="90" as="geometry"/>
                </mxCell>
                <mxCell id="5dTWsFyq5Sc_2p3kr0p3-54" value="No" style="edgeStyle=orthogonalEdgeStyle;rounded=0;html=1;jettySize=auto;orthogonalLoop=1;fontSize=11;endArrow=block;endFill=0;endSize=8;strokeWidth=1;shadow=0;labelBackgroundColor=none;" parent="WIyWlLk6GJQsqaUBKTNV-1" source="5dTWsFyq5Sc_2p3kr0p3-51" target="5dTWsFyq5Sc_2p3kr0p3-56" edge="1">
                    <mxGeometry x="-0.3144" y="15" relative="1" as="geometry">
                        <mxPoint as="offset"/>
                        <mxPoint x="415" y="359.71" as="sourcePoint"/>
                        <mxPoint x="475" y="359.71" as="targetPoint"/>
                    </mxGeometry>
                </mxCell>
                <mxCell id="5dTWsFyq5Sc_2p3kr0p3-55" value="Yes" style="edgeStyle=orthogonalEdgeStyle;rounded=0;html=1;jettySize=auto;orthogonalLoop=1;fontSize=11;endArrow=block;endFill=0;endSize=8;strokeWidth=1;shadow=0;labelBackgroundColor=none;" parent="WIyWlLk6GJQsqaUBKTNV-1" source="5dTWsFyq5Sc_2p3kr0p3-51" target="5dTWsFyq5Sc_2p3kr0p3-35" edge="1">
                    <mxGeometry x="-0.2" y="-20" relative="1" as="geometry">
                        <mxPoint as="offset"/>
                        <mxPoint x="340" y="430" as="sourcePoint"/>
                        <mxPoint x="475" y="420" as="targetPoint"/>
                    </mxGeometry>
                </mxCell>
                <mxCell id="5dTWsFyq5Sc_2p3kr0p3-56" value="Генерируем исключение" style="rounded=1;whiteSpace=wrap;html=1;fontSize=12;glass=0;strokeWidth=1;shadow=0;" parent="WIyWlLk6GJQsqaUBKTNV-1" vertex="1">
                    <mxGeometry x="458.34" y="345" width="120" height="40" as="geometry"/>
                </mxCell>
                <mxCell id="5dTWsFyq5Sc_2p3kr0p3-59" value="Yes" style="edgeStyle=orthogonalEdgeStyle;rounded=0;html=1;jettySize=auto;orthogonalLoop=1;fontSize=11;endArrow=block;endFill=0;endSize=8;strokeWidth=1;shadow=0;labelBackgroundColor=none;" parent="WIyWlLk6GJQsqaUBKTNV-1" source="5dTWsFyq5Sc_2p3kr0p3-22" target="5dTWsFyq5Sc_2p3kr0p3-56" edge="1">
                    <mxGeometry x="-0.8616" y="18" relative="1" as="geometry">
                        <mxPoint as="offset"/>
                        <mxPoint x="595" y="623.51" as="sourcePoint"/>
                        <mxPoint x="651" y="623.51" as="targetPoint"/>
                    </mxGeometry>
                </mxCell>
                <mxCell id="5dTWsFyq5Sc_2p3kr0p3-62" value="No" style="edgeStyle=orthogonalEdgeStyle;rounded=0;html=1;jettySize=auto;orthogonalLoop=1;fontSize=11;endArrow=block;endFill=0;endSize=8;strokeWidth=1;shadow=0;labelBackgroundColor=none;" parent="WIyWlLk6GJQsqaUBKTNV-1" source="5dTWsFyq5Sc_2p3kr0p3-22" target="5dTWsFyq5Sc_2p3kr0p3-63" edge="1">
                    <mxGeometry x="-0.8325" y="-18" relative="1" as="geometry">
                        <mxPoint as="offset"/>
                        <mxPoint x="480" y="692.5" as="sourcePoint"/>
                        <mxPoint x="538" y="692.5" as="targetPoint"/>
                        <Array as="points">
                            <mxPoint x="518" y="760"/>
                        </Array>
                    </mxGeometry>
                </mxCell>
                <mxCell id="2" value="" style="edgeStyle=orthogonalEdgeStyle;rounded=0;orthogonalLoop=1;jettySize=auto;html=1;labelBackgroundColor=none;endArrow=block;endFill=0;endSize=8;strokeWidth=1;shadow=0;" edge="1" parent="WIyWlLk6GJQsqaUBKTNV-1" source="5dTWsFyq5Sc_2p3kr0p3-63" target="1">
                    <mxGeometry relative="1" as="geometry">
                        <mxPoint x="548.3399999999999" y="859.9999999999999" as="sourcePoint"/>
                        <mxPoint x="430" y="920" as="targetPoint"/>
                    </mxGeometry>
                </mxCell>
                <mxCell id="3" value="" style="edgeStyle=orthogonalEdgeStyle;rounded=0;orthogonalLoop=1;jettySize=auto;html=1;labelBackgroundColor=none;endArrow=block;endFill=0;endSize=8;strokeWidth=1;shadow=0;" edge="1" parent="WIyWlLk6GJQsqaUBKTNV-1" source="1" target="5dTWsFyq5Sc_2p3kr0p3-40">
                    <mxGeometry relative="1" as="geometry">
                        <mxPoint x="431.65999999999997" y="780" as="sourcePoint"/>
                        <mxPoint x="431.58592592592584" y="820.051806760364" as="targetPoint"/>
                    </mxGeometry>
                </mxCell>
                <mxCell id="4" value="" style="edgeStyle=orthogonalEdgeStyle;rounded=0;html=1;jettySize=auto;orthogonalLoop=1;fontSize=11;endArrow=none;endFill=0;endSize=8;strokeWidth=1;shadow=0;labelBackgroundColor=none;startArrow=none;" edge="1" parent="WIyWlLk6GJQsqaUBKTNV-1" source="5dTWsFyq5Sc_2p3kr0p3-63" target="1">
                    <mxGeometry x="-0.7958" y="-20" relative="1" as="geometry">
                        <mxPoint as="offset"/>
                        <mxPoint x="339.91666666666674" y="677.4412486336893" as="sourcePoint"/>
                        <mxPoint x="340" y="910" as="targetPoint"/>
                    </mxGeometry>
                </mxCell>
                <mxCell id="1" value="Обновление графа зависимостей" style="rounded=1;whiteSpace=wrap;html=1;fontSize=12;glass=0;strokeWidth=1;shadow=0;" vertex="1" parent="WIyWlLk6GJQsqaUBKTNV-1">
                    <mxGeometry x="279.98999999999995" y="820" width="120" height="40" as="geometry"/>
                </mxCell>
                <mxCell id="5dTWsFyq5Sc_2p3kr0p3-63" value="Инвалидация кэша" style="rounded=1;whiteSpace=wrap;html=1;fontSize=12;glass=0;strokeWidth=1;shadow=0;" parent="WIyWlLk6GJQsqaUBKTNV-1" vertex="1">
                    <mxGeometry x="279.98999999999995" y="740" width="120" height="40" as="geometry"/>
                </mxCell>
                <mxCell id="6" value="No" style="edgeStyle=orthogonalEdgeStyle;rounded=0;html=1;jettySize=auto;orthogonalLoop=1;fontSize=11;endArrow=block;endFill=0;endSize=8;strokeWidth=1;shadow=0;labelBackgroundColor=none;" edge="1" parent="WIyWlLk6GJQsqaUBKTNV-1" source="5dTWsFyq5Sc_2p3kr0p3-18" target="5dTWsFyq5Sc_2p3kr0p3-63">
                    <mxGeometry x="-0.8325" y="-18" relative="1" as="geometry">
                        <mxPoint as="offset"/>
                        <mxPoint x="188.34333333333325" y="610.0046666666665" as="sourcePoint"/>
                        <mxPoint x="70" y="706.26" as="targetPoint"/>
                        <Array as="points">
                            <mxPoint x="340" y="680"/>
                            <mxPoint x="340" y="680"/>
                        </Array>
                    </mxGeometry>
                </mxCell>
            </root>
        </mxGraphModel>
    </diagram>
</mxfile>